Coordinates
version=1
nRows=8
nColumns=40
inDegrees=yes

Units are S.I. units (second, meters, Newtons, ...)
Angles are in degrees.

endheader
time	pelvis_tilt	pelvis_list	pelvis_rotation	pelvis_tx	pelvis_ty	pelvis_tz	hip_flexion_r	hip_adduction_r	hip_rotation_r	knee_angle_r	knee_angle_r_beta	ankle_angle_r	subtalar_angle_r	mtp_angle_r	hip_flexion_l	hip_adduction_l	hip_rotation_l	knee_angle_l	knee_angle_l_beta	ankle_angle_l	subtalar_angle_l	mtp_angle_l	lumbar_extension	lumbar_bending	lumbar_rotation	arm_flex_r	arm_add_r	arm_rot_r	elbow_flex_r	pro_sup_r	wrist_flex_r	wrist_dev_r	arm_flex_l	arm_add_l	arm_rot_l	elbow_flex_l	pro_sup_l	wrist_flex_l	wrist_dev_l
     55.22000000	     -6.49996350	     -5.20296694	      9.04107836	      0.95773907	      0.91720931	      0.50599701	      7.25763793	      5.90217208	    -14.36751353	     16.52107657	     16.52107657	     18.29627941	     -4.02974862	     -1.48519541	     30.93612968	     -6.62663668	      2.08239815	     16.93421432	     16.93421432	      2.65644176	     -5.01056580	      1.39348078	     -8.72961894	      3.33928331	      2.73870445	     49.63092240	    -17.24840702	     -6.76551284	     99.40670067	     44.29636839	      0.00000000	      0.00000000	    -12.89294228	     -8.28858493	      3.24084131	     27.64431956	     45.27814749	      0.00000000	      0.00000000
     55.23885714	     -6.61098213	     -5.27775244	      9.29722993	      0.95867456	      0.91649385	      0.50354692	      6.91401022	      5.86874564	    -14.46102247	     16.53868236	     16.53868236	     18.54393481	     -4.11332935	     -1.52852572	     30.81494431	     -6.52264540	      1.96912448	     17.18371979	     17.18371979	      1.87934309	     -4.87594901	      1.51847426	     -8.54140715	      3.24133159	      2.74203604	     50.09457025	    -17.20121078	     -6.75102454	     99.72719676	     44.28905722	      0.00000000	      0.00000000	    -12.76185633	     -8.28476733	      3.25473939	     27.63768749	     45.27955251	      0.00000000	      0.00000000
     55.25771429	     -6.56982911	     -5.28652240	      9.46345541	      0.95975465	      0.91597619	      0.50088474	      6.43487015	      5.74418872	    -14.61278284	     16.67037137	     16.67037137	     18.79128446	     -4.01302240	     -1.49389151	     30.68723869	     -6.39385828	      1.98543863	     17.85707001	     17.85707001	      1.27618989	     -4.97150606	      0.92207519	     -8.72296528	      3.18797109	      2.55470157	     51.32157871	    -16.95230769	     -6.63179354	    101.15477621	     44.25280452	      0.00000000	      0.00000000	    -12.35289944	     -8.25849868	      3.33707607	     27.39681459	     45.28147211	      0.00000000	      0.00000000
     55.27657143	     -6.61440325	     -5.31396972	      9.65976319	      0.96106434	      0.91560693	      0.49787678	      6.01641167	      5.57093980	    -14.97619682	     16.80383514	     16.80383514	     19.23926813	     -3.50824130	     -0.91723468	     30.46247306	     -6.16725201	      2.33865304	     18.13342450	     18.13342450	     -0.22112551	     -5.84160280	     -1.65208360	     -8.71109609	      3.12770851	      3.17142756	     51.00384527	    -17.70815247	     -6.82201740	    103.27943650	     44.25308163	      0.00000000	      0.00000000	    -11.10450715	     -8.17194793	      3.66307309	     25.99187390	     45.30556332	      0.00000000	      0.00000000
     55.29542857	     -6.68962434	     -5.23014412	      9.83153730	      0.96237924	      0.91553169	      0.49464414	      5.56884897	      5.32059895	    -15.04028825	     16.80720480	     16.80720480	     19.31463375	     -3.57719337	     -0.89673948	     30.37185029	     -5.85310598	      2.54255787	     18.74744144	     18.74744144	     -0.35378477	     -6.02003277	     -1.71333061	     -8.64310817	      2.96082616	      3.16428888	     51.15801271	    -17.58287773	     -6.79641193	    103.30274615	     44.25449137	      0.00000000	      0.00000000	    -10.61635102	     -8.21211880	      3.67329425	     26.12380640	     45.31430284	      0.00000000	      0.00000000
     55.31428571	     -6.66940619	     -5.16341009	      9.90949501	      0.96384898	      0.91564080	      0.49128357	      5.02617039	      5.08114579	    -15.08572764	     16.84564412	     16.84564412	     19.34304265	     -3.51885249	     -0.88270488	     30.32588331	     -5.55727491	      2.89064649	     19.70102630	     19.70102630	     -0.14327122	     -6.59143448	     -1.85503374	     -8.71157663	      2.83531498	      3.21432093	     51.23172774	    -17.45661769	     -6.77859615	    103.25613514	     44.25860727	      0.00000000	      0.00000000	    -10.04850891	     -8.28238182	      3.68004784	     26.25301582	     45.32561870	      0.00000000	      0.00000000
     55.33314286	     -6.68759608	     -5.35138955	      9.97535082	      0.96513243	      0.91562315	      0.48764537	      4.55627070	      5.04470288	    -15.32589118	     16.85647064	     16.85647064	     19.36462536	     -2.98788991	     -0.96516968	     30.59214148	     -5.35965570	      3.86439337	     21.02890842	     21.02890842	      0.23043938	     -8.04922901	     -1.46623073	     -8.70477665	      3.13316133	      3.45501632	     51.31772340	    -17.63635681	     -6.98613987	    102.87739157	     44.28839064	      0.00000000	      0.00000000	     -9.56683784	     -8.27704319	      3.70582408	     26.20557339	     45.33893859	      0.00000000	      0.00000000
     55.35200000	     -6.69020669	     -5.30103507	      9.91041063	      0.96666530	      0.91598725	      0.48396586	      4.02684717	      4.74505313	    -15.55504613	     16.89175265	     16.89175265	     19.29696427	     -2.53110474	     -1.04532627	     30.51970336	     -5.00760464	      4.44007918	     21.96757972	     21.96757972	      0.83995228	     -9.24643913	     -0.89158528	     -8.70994373	      3.02981678	      3.67078216	     51.03211194	    -17.67752228	     -7.07012926	    102.26238548	     44.32008442	      0.00000000	      0.00000000	     -8.85660934	     -8.35001885	      3.71296826	     26.27555453	     45.35895395	      0.00000000	      0.00000000
